<svg id="export_to_excel" xmlns="http://www.w3.org/2000/svg" viewBox="0 0 64 64"><defs><style>.cls-1{fill:none;stroke:#4f4f4f;stroke-linecap:round;stroke-linejoin:round;stroke-width:3px;}.cls-2{fill:#4f4f4f;}</style></defs><polyline class="cls-1" points="45.59 24.43 59.17 24.43 59.17 57.88 4.83 57.88 4.83 24.43 19.39 24.43"/><line class="cls-1" x1="32.49" y1="6.12" x2="32.49" y2="24.43"/><polyline class="cls-1" points="23.09 18.5 32.42 27.84 41.89 18.38"/><path class="cls-2" d="M12.63,46.78,15.25,43l-2.2-3.39a7.09,7.09,0,0,1-.47-.85,1.71,1.71,0,0,1-.15-.68.8.8,0,0,1,.3-.6,1,1,0,0,1,.73-.27,1,1,0,0,1,.76.29A7.21,7.21,0,0,1,15,38.54l1.75,2.84,1.88-2.84.39-.61a3.28,3.28,0,0,1,.31-.42,1.1,1.1,0,0,1,.34-.25,1,1,0,0,1,.44-.09,1,1,0,0,1,.72.27.85.85,0,0,1,.29.63,2.93,2.93,0,0,1-.62,1.45L18.18,43l2.48,3.82a7.88,7.88,0,0,1,.49.83,1.52,1.52,0,0,1,.15.62,1,1,0,0,1-.52.88,1.16,1.16,0,0,1-.56.13,1,1,0,0,1-.56-.14,1.14,1.14,0,0,1-.38-.34L18.75,48l-2.06-3.23-2.18,3.33-.36.56a2.38,2.38,0,0,1-.26.31,1.13,1.13,0,0,1-.36.24,1.38,1.38,0,0,1-.48.08,1,1,0,0,1-.71-.26,1,1,0,0,1-.29-.76A2.75,2.75,0,0,1,12.63,46.78Z"/><path class="cls-2" d="M25.23,38.61V47.1H30a1.24,1.24,0,0,1,.88.28,1,1,0,0,1,0,1.4A1.31,1.31,0,0,1,30,49H24.31a1.52,1.52,0,0,1-1.11-.34,1.57,1.57,0,0,1-.34-1.11v-9a1.55,1.55,0,0,1,.33-1.08,1.07,1.07,0,0,1,.85-.36,1.12,1.12,0,0,1,.86.36A1.52,1.52,0,0,1,25.23,38.61Z"/><path class="cls-2" d="M41,45.54a3.36,3.36,0,0,1-.55,1.9,3.57,3.57,0,0,1-1.59,1.33,6.11,6.11,0,0,1-2.49.47,5.52,5.52,0,0,1-2.85-.65,3.71,3.71,0,0,1-1.3-1.25,2.88,2.88,0,0,1-.5-1.53,1,1,0,0,1,1.06-1,.93.93,0,0,1,.64.24,2,2,0,0,1,.44.71,5,5,0,0,0,.48.93,1.85,1.85,0,0,0,.73.61,2.56,2.56,0,0,0,1.23.25A2.84,2.84,0,0,0,38,47a1.48,1.48,0,0,0,.66-1.22,1.29,1.29,0,0,0-.36-.95,2.36,2.36,0,0,0-.91-.55c-.38-.13-.88-.26-1.51-.41a10.33,10.33,0,0,1-2.1-.69,3.44,3.44,0,0,1-1.35-1.07A2.79,2.79,0,0,1,32,40.44a2.91,2.91,0,0,1,.52-1.71A3.27,3.27,0,0,1,34,37.58a6.23,6.23,0,0,1,2.34-.41,5.7,5.7,0,0,1,1.86.27,3.84,3.84,0,0,1,1.3.71,2.81,2.81,0,0,1,.76.93,2.11,2.11,0,0,1,.24.94,1.09,1.09,0,0,1-.3.76.94.94,0,0,1-.74.34.89.89,0,0,1-.62-.2,2.72,2.72,0,0,1-.46-.67,3.1,3.1,0,0,0-.76-1,2.3,2.3,0,0,0-1.44-.37,2.44,2.44,0,0,0-1.47.41,1.14,1.14,0,0,0-.56,1,1,1,0,0,0,.19.61,1.64,1.64,0,0,0,.52.44,3.91,3.91,0,0,0,.68.28l1.13.31c.66.15,1.25.32,1.79.5a6,6,0,0,1,1.36.68,2.83,2.83,0,0,1,.87,1A3.19,3.19,0,0,1,41,45.54Z"/><path class="cls-2" d="M42.58,46.78,45.2,43,43,39.57a7.09,7.09,0,0,1-.47-.85,1.71,1.71,0,0,1-.15-.68.8.8,0,0,1,.3-.6,1,1,0,0,1,.72-.27,1,1,0,0,1,.77.29,7.21,7.21,0,0,1,.76,1.08l1.75,2.84,1.87-2.84.4-.61a3.28,3.28,0,0,1,.31-.42,1,1,0,0,1,.34-.25,1,1,0,0,1,.44-.09,1,1,0,0,1,.72.27.85.85,0,0,1,.29.63,2.93,2.93,0,0,1-.62,1.45L48.13,43l2.48,3.82a6.19,6.19,0,0,1,.48.83,1.39,1.39,0,0,1,.16.62,1,1,0,0,1-.52.88,1.16,1.16,0,0,1-.56.13,1,1,0,0,1-.56-.14,1.14,1.14,0,0,1-.38-.34L48.7,48l-2.06-3.23-2.18,3.33-.36.56a2.38,2.38,0,0,1-.26.31,1.13,1.13,0,0,1-.36.24,1.38,1.38,0,0,1-.48.08,1,1,0,0,1-.71-.26,1,1,0,0,1-.29-.76A2.75,2.75,0,0,1,42.58,46.78Z"/></svg>